<svg xmlns="http://www.w3.org/2000/svg" viewBox="10 6.1 236.06 243.7" fill="currentColor">
	<path d="M 230.76 67 C 222.36 67 215.56 60.2 215.56 51.8 L 215.56 44.2 C 215.56 40 212.16 36.6 207.96 36.6 L 116.56 36.6 C 112.36 36.6 108.96 40 108.96 44.2 L 108.96 211.7 C 108.96 215.9 112.36 219.3 116.56 219.3 L 207.96 219.3 C 212.16 219.3 215.56 215.9 215.56 211.7 L 215.56 203.1 C 215.56 194.7 222.36 187.9 230.76 187.9 C 239.16 187.9 245.96 194.7 245.96 203.1 L 245.96 211.7 C 245.96 232.7 228.86 249.8 207.86 249.8 L 116.56 249.8 C 95.56 249.7 78.46 232.7 78.46 211.7 L 78.46 44.2 C 78.46 23.2 95.56 6.1 116.56 6.1 L 207.96 6.1 C 228.96 6.1 246.06 23.2 246.06 44.2 L 246.06 51.8 C 245.96 60.2 239.16 67 230.76 67 Z" style="transform-origin: 162.26px 127.95px;" transform="matrix(-1, 0, 0, -1, 0, 0)"></path>
	<path d="M 162.2 128.901 C 162.3 127.601 162.3 126.301 162 125.001 C 162 125.001 162 124.901 162 124.901 C 161.8 123.701 161.3 122.501 160.7 121.301 C 160.6 121.001 160.4 120.801 160.3 120.501 C 159.6 119.301 158.9 118.201 157.9 117.301 L 119.5 78.901 C 113.6 73.001 103.9 73.001 97.9 78.901 C 92 84.801 92 94.501 97.9 100.501 L 110.3 112.901 L 25.2 112.901 C 16.8 112.901 10 119.701 10 128.101 C 10 136.501 16.8 143.301 25.2 143.301 L 110.2 143.301 L 98.2 155.301 C 92.3 161.201 92.3 170.901 98.2 176.901 C 101.2 179.901 105.1 181.401 109 181.401 C 112.9 181.401 116.8 179.901 119.8 176.901 L 157.9 138.801 C 158.1 138.601 158.3 138.301 158.5 138.101 C 158.7 137.901 158.9 137.601 159.2 137.301 C 160 136.301 160.7 135.201 161.2 134.001 C 161.2 134.001 161.2 134.001 161.2 133.901 C 161.7 132.601 162 131.301 162.2 130.001 C 162.1 129.601 162.1 129.301 162.2 128.901 Z" style="transform-origin: 86.13px 127.937px;"></path>
</svg>