<svg version="1.1" xmlns="http://www.w3.org/2000/svg" xmlns:xlink="http://www.w3.org/1999/xlink" viewBox="0 0 256 256" xml:space="preserve" fill="currentColor">
	<path d="M162.3,188.9c-8.4,0-15.2,6.8-15.2,15.2v7.6c0,4.2-3.4,7.6-7.6,7.6H48.1c-4.2,0-7.6-3.4-7.6-7.6V44.2c0-4.2,3.4-7.6,7.6-7.6h91.4c4.2,0,7.6,3.4,7.6,7.6v8.6c0,8.4,6.8,15.2,15.2,15.2c8.4,0,15.2-6.8,15.2-15.2v-8.6c0-21-17.1-38.1-38.1-38.1H48.1C27.1,6.2,10,23.2,10,44.2v167.5c0,21,17.1,38.1,38.1,38.1h91.4c21,0,38.1-17.1,38.1-38.1v-7.6C177.5,195.7,170.7,188.9,162.3,188.9z"/>
	<path d="M246,128.9c0.1-1.3,0.1-2.6-0.2-3.9c0,0,0-0.1,0-0.1c-0.2-1.2-0.7-2.4-1.3-3.6c-0.1-0.3-0.3-0.5-0.4-0.8c-0.7-1.2-1.4-2.3-2.4-3.2l-38.4-38.4c-5.9-5.9-15.6-5.9-21.6,0c-5.9,5.9-5.9,15.6,0,21.6l12.4,12.4H109c-8.4,0-15.2,6.8-15.2,15.2c0,8.4,6.8,15.2,15.2,15.2H194L182,155.3c-5.9,5.9-5.9,15.6,0,21.6c3,3,6.9,4.5,10.8,4.5c3.9,0,7.8-1.5,10.8-4.5l38.1-38.1c0.2-0.2,0.4-0.5,0.6-0.7c0.2-0.2,0.4-0.5,0.7-0.8c0.8-1,1.5-2.1,2-3.3c0,0,0,0,0-0.1v0c0.5-1.3,0.8-2.6,1-3.9C245.9,129.6,245.9,129.3,246,128.9z"/>
</svg>
