
<svg xmlns="http://www.w3.org/2000/svg" version="1.1" xmlns:xlink="http://www.w3.org/1999/xlink" preserveAspectRatio="none" x="0px" y="0px" width="64px" height="64px" viewBox="0 0 64 64">
<defs>
<g id="Layer1_0_FILL">
<path fill="#240C3C" stroke="none" d="
M 44.2 4.5
Q 42.5 3.7 40.8 3.3 38.35 2.7 35.9 2.85 31.75 3.65 28.95 6.45 26.7 8.65 26.15 12 25.6 14.25 26.15 17.55
L 10.6 2 0 12.55 0.8 13.4
Q 2.8 12.05 4.15 11.75 5.55 12 8.05 14.5
L 47.25 53.65
Q 50.05 56.45 50.05 57.55 50.1 59.25 48.4 60.9
L 49.5 62 64 47.55 62.9 46.5
Q 60.95 48.4 60.1 48.65 59 49.2 58.15 48.9 57.05 48.4 55.1 46.5
L 45.65 37
Q 48.7 37.3 50.6 36.45 53.7 35.6 55.65 33.65 58.75 30.6 59.25 26.75 60.1 22.55 57.85 18.1 56.2 13.65 52.3 9.8 48.7 6.15 44.2 4.5
M 40.8 14.8
Q 42.65 16.25 44.8 18.4 51.2 24.8 52.05 28.4 52.6 31.2 51.2 32.6 48.4 35.35 42.85 34.25
L 29.2 20.6
Q 26.95 15.1 29.75 12.3 31.7 10.35 34.2 11.2 36.85 11.55 40.8 14.8 Z"/>
</g>
</defs>

<g transform="matrix( 1, 0, 0, 1, 0,0) ">
<use xlink:href="#Layer1_0_FILL"/>
</g>
</svg>
